# xmcd
#
# Track frame offsets: 
#        150
#        20000
#        37272
#        55290
#
# Disc length: 1201 seconds
#
# Revision: 1
# Processed by: cddbd v1.5.2PL0 Copyright (c) Steve Scherf et al.
# Submitted via: ExactAudioCopy v0.95b4
#
DISCID=3404af04
DTITLE=Climie Fisher - I Won't Bleed For You [CD Single)
DYEAR=1988
DGENRE=Pop
TTITLE0=I Won't Bleed For You (7"Version)
TTITLE1=This Is Me (7" Version)
TTITLE2=Climbing Up The Ladder
TTITLE3=I Won't Bleed For You (Extended Bleed Mix)
EXTD=YEAR: 1988
EXTT0=
EXTT1=
EXTT2=
EXTT3=
PLAYORDER=
